<svg width="88" height="24" viewBox="0 0 88 24" fill="none" xmlns="http://www.w3.org/2000/svg">
<path d="M21.3377 16C21.2497 16 21.2057 15.952 21.2057 15.856V8.284C21.2057 8.188 21.2497 8.14 21.3377 8.14H23.7257C24.6697 8.14 25.3777 8.3 25.8497 8.62C26.3297 8.94 26.5697 9.428 26.5697 10.084C26.5697 10.54 26.4657 10.904 26.2577 11.176C26.0577 11.448 25.7297 11.664 25.2737 11.824V11.86C25.8097 11.956 26.2137 12.164 26.4857 12.484C26.7657 12.796 26.9057 13.22 26.9057 13.756C26.9057 14.54 26.6537 15.112 26.1497 15.472C25.6457 15.824 24.8377 16 23.7257 16H21.3377ZM22.6457 14.8H23.7617C24.3697 14.8 24.8057 14.716 25.0697 14.548C25.3337 14.372 25.4657 14.08 25.4657 13.672C25.4657 13.272 25.3297 12.98 25.0577 12.796C24.7937 12.612 24.3657 12.52 23.7737 12.52H22.6457V14.8ZM22.6457 11.428H23.6897C24.1937 11.428 24.5577 11.34 24.7817 11.164C25.0137 10.988 25.1297 10.716 25.1297 10.348C25.1297 9.988 25.0097 9.728 24.7697 9.568C24.5297 9.408 24.1377 9.328 23.5937 9.328H22.6457V11.428ZM30.1681 16.144C29.3201 16.144 28.6641 15.944 28.2001 15.544C27.7441 15.136 27.5161 14.52 27.5161 13.696V12.4C27.5161 11.584 27.7441 10.972 28.2001 10.564C28.6561 10.156 29.3121 9.952 30.1681 9.952C31.0161 9.952 31.6681 10.156 32.1241 10.564C32.5801 10.972 32.8081 11.584 32.8081 12.4V13.696C32.8081 14.52 32.5801 15.136 32.1241 15.544C31.6761 15.944 31.0241 16.144 30.1681 16.144ZM30.1681 14.932C30.6001 14.932 30.9121 14.824 31.1041 14.608C31.2961 14.384 31.3921 14.036 31.3921 13.564V12.532C31.3921 12.06 31.2961 11.716 31.1041 11.5C30.9121 11.276 30.6001 11.164 30.1681 11.164C29.7361 11.164 29.4201 11.276 29.2201 11.5C29.0281 11.716 28.9321 12.06 28.9321 12.532V13.564C28.9321 14.036 29.0281 14.384 29.2201 14.608C29.4201 14.824 29.7361 14.932 30.1681 14.932ZM36.2155 16.144C35.3675 16.144 34.7115 15.944 34.2475 15.544C33.7915 15.136 33.5635 14.52 33.5635 13.696V12.4C33.5635 11.584 33.7915 10.972 34.2475 10.564C34.7035 10.156 35.3595 9.952 36.2155 9.952C37.0635 9.952 37.7155 10.156 38.1715 10.564C38.6275 10.972 38.8555 11.584 38.8555 12.4V13.696C38.8555 14.52 38.6275 15.136 38.1715 15.544C37.7235 15.944 37.0715 16.144 36.2155 16.144ZM36.2155 14.932C36.6475 14.932 36.9595 14.824 37.1515 14.608C37.3435 14.384 37.4395 14.036 37.4395 13.564V12.532C37.4395 12.06 37.3435 11.716 37.1515 11.5C36.9595 11.276 36.6475 11.164 36.2155 11.164C35.7835 11.164 35.4675 11.276 35.2675 11.5C35.0755 11.716 34.9795 12.06 34.9795 12.532V13.564C34.9795 14.036 35.0755 14.384 35.2675 14.608C35.4675 14.824 35.7835 14.932 36.2155 14.932ZM39.8988 16C39.8108 16 39.7668 15.952 39.7668 15.856V7.948C39.7668 7.852 39.8108 7.804 39.8988 7.804H41.0388C41.1348 7.804 41.1828 7.852 41.1828 7.948V10.876C41.1828 11.06 41.1788 11.244 41.1708 11.428C41.1708 11.612 41.1668 11.796 41.1588 11.98C41.1588 12.164 41.1548 12.348 41.1468 12.532H41.1708C41.3068 12.356 41.4428 12.18 41.5788 12.004C41.7228 11.828 41.8668 11.656 42.0108 11.488L43.1628 10.168C43.1948 10.12 43.2508 10.096 43.3308 10.096H44.7588C44.8308 10.096 44.8708 10.112 44.8788 10.144C44.8948 10.176 44.8828 10.216 44.8428 10.264L42.8508 12.46L45.0108 15.832C45.0428 15.88 45.0508 15.92 45.0348 15.952C45.0188 15.984 44.9788 16 44.9148 16H43.5828C43.5108 16 43.4548 15.968 43.4148 15.904L41.8668 13.456L41.1828 14.176V15.856C41.1828 15.952 41.1348 16 41.0388 16H39.8988ZM45.6063 16C45.5183 16 45.4743 15.952 45.4743 15.856V10.24C45.4743 10.144 45.5183 10.096 45.6063 10.096H46.7463C46.8423 10.096 46.8903 10.144 46.8903 10.24V15.856C46.8903 15.952 46.8423 16 46.7463 16H45.6063ZM46.1823 9.244C45.9103 9.244 45.7023 9.172 45.5583 9.028C45.4223 8.884 45.3543 8.7 45.3543 8.476V8.296C45.3543 8.064 45.4223 7.88 45.5583 7.744C45.7023 7.6 45.9103 7.528 46.1823 7.528C46.4543 7.528 46.6583 7.6 46.7943 7.744C46.9303 7.88 46.9983 8.064 46.9983 8.296V8.476C46.9983 8.7 46.9303 8.884 46.7943 9.028C46.6583 9.172 46.4543 9.244 46.1823 9.244ZM51.8357 16C51.7397 16 51.6917 15.952 51.6917 15.856V12.16C51.6917 11.824 51.6237 11.576 51.4877 11.416C51.3517 11.256 51.1437 11.176 50.8637 11.176C50.5837 11.176 50.3077 11.26 50.0357 11.428C49.7717 11.588 49.4677 11.84 49.1237 12.184L49.0757 11.14C49.3077 10.892 49.5397 10.68 49.7717 10.504C50.0117 10.328 50.2597 10.192 50.5157 10.096C50.7717 10 51.0517 9.952 51.3557 9.952C51.9317 9.952 52.3677 10.116 52.6637 10.444C52.9597 10.764 53.1077 11.26 53.1077 11.932V15.856C53.1077 15.952 53.0597 16 52.9637 16H51.8357ZM48.0677 16C47.9797 16 47.9357 15.952 47.9357 15.856V11.596C47.9357 11.372 47.9237 11.136 47.8997 10.888C47.8837 10.64 47.8677 10.432 47.8517 10.264C47.8357 10.152 47.8837 10.096 47.9957 10.096H49.0037C49.0517 10.096 49.0877 10.104 49.1117 10.12C49.1357 10.136 49.1517 10.172 49.1597 10.228C49.1757 10.292 49.1917 10.388 49.2077 10.516C49.2237 10.636 49.2397 10.764 49.2557 10.9C49.2717 11.036 49.2797 11.156 49.2797 11.26L49.3517 11.74V15.856C49.3517 15.952 49.3037 16 49.2077 16H48.0677ZM56.4271 18.364C55.4591 18.364 54.7591 18.24 54.3271 17.992C53.8951 17.744 53.6791 17.372 53.6791 16.876C53.6791 16.572 53.7511 16.3 53.8951 16.06C54.0471 15.82 54.2871 15.62 54.6151 15.46L55.6951 15.808C55.4951 15.88 55.3471 15.984 55.2511 16.12C55.1631 16.256 55.1191 16.412 55.1191 16.588C55.1191 16.836 55.2191 17.008 55.4191 17.104C55.6191 17.208 55.9791 17.264 56.4991 17.272C57.0591 17.272 57.4391 17.22 57.6391 17.116C57.8391 17.012 57.9391 16.828 57.9391 16.564C57.9391 16.38 57.8911 16.244 57.7951 16.156C57.7071 16.068 57.5631 16.02 57.3631 16.012L55.1671 15.88C54.8711 15.856 54.6191 15.752 54.4111 15.568C54.2111 15.384 54.1111 15.112 54.1111 14.752C54.1111 14.576 54.1351 14.416 54.1831 14.272C54.2391 14.128 54.3271 13.996 54.4471 13.876C54.5671 13.748 54.7231 13.616 54.9151 13.48L55.7791 13.876C55.6191 13.932 55.5031 14.008 55.4311 14.104C55.3671 14.192 55.3351 14.288 55.3351 14.392C55.3351 14.512 55.3711 14.596 55.4431 14.644C55.5231 14.692 55.6471 14.72 55.8151 14.728L57.7471 14.848C58.2991 14.888 58.6991 15.052 58.9471 15.34C59.2031 15.62 59.3311 16.028 59.3311 16.564C59.3311 17.196 59.0991 17.652 58.6351 17.932C58.1791 18.22 57.4431 18.364 56.4271 18.364ZM56.5471 14.092C55.7471 14.092 55.1551 13.924 54.7711 13.588C54.3951 13.244 54.2071 12.724 54.2071 12.028C54.2071 11.324 54.3991 10.804 54.7831 10.468C55.1671 10.124 55.7631 9.952 56.5711 9.952C57.3551 9.952 57.9351 10.124 58.3111 10.468C58.6871 10.812 58.8751 11.336 58.8751 12.04C58.8751 12.736 58.6871 13.252 58.3111 13.588C57.9351 13.924 57.3471 14.092 56.5471 14.092ZM56.5471 12.988C56.9071 12.988 57.1551 12.916 57.2911 12.772C57.4351 12.62 57.5071 12.372 57.5071 12.028C57.5071 11.676 57.4351 11.424 57.2911 11.272C57.1551 11.12 56.9071 11.044 56.5471 11.044C56.1871 11.044 55.9351 11.12 55.7911 11.272C55.6471 11.424 55.5751 11.676 55.5751 12.028C55.5751 12.372 55.6471 12.62 55.7911 12.772C55.9351 12.916 56.1871 12.988 56.5471 12.988ZM58.1311 10.612L57.1111 10.216C57.1351 9.888 57.1631 9.6 57.1951 9.352C57.2351 9.096 57.2711 8.876 57.3031 8.692C57.3271 8.596 57.3751 8.548 57.4471 8.548H58.4071C58.5191 8.548 58.5591 8.6 58.5271 8.704C58.4391 8.968 58.3631 9.248 58.2991 9.544C58.2431 9.832 58.1871 10.188 58.1311 10.612ZM61.943 16C61.903 16 61.871 15.988 61.847 15.964C61.823 15.932 61.811 15.896 61.811 15.856L61.967 8.284C61.967 8.188 62.015 8.14 62.111 8.14H63.659C63.731 8.14 63.783 8.176 63.815 8.248L65.819 12.616L67.787 8.248C67.827 8.176 67.883 8.14 67.955 8.14H69.503C69.591 8.14 69.635 8.188 69.635 8.284L69.803 15.856C69.803 15.896 69.791 15.932 69.767 15.964C69.743 15.988 69.707 16 69.659 16H68.531C68.435 16 68.387 15.952 68.387 15.856L68.291 11.98C68.283 11.66 68.287 11.34 68.303 11.02C68.319 10.692 68.331 10.372 68.339 10.06H68.303C68.175 10.372 68.039 10.688 67.895 11.008C67.759 11.32 67.615 11.628 67.463 11.932L65.987 15.04C65.955 15.104 65.899 15.136 65.819 15.136H65.771C65.699 15.136 65.647 15.104 65.615 15.04L64.127 11.896C63.975 11.6 63.831 11.296 63.695 10.984C63.559 10.664 63.431 10.356 63.311 10.06H63.275C63.291 10.364 63.303 10.68 63.311 11.008C63.319 11.328 63.319 11.644 63.311 11.956L63.215 15.856C63.215 15.952 63.171 16 63.083 16H61.943ZM74.2689 16C74.2209 16 74.1849 15.988 74.1609 15.964C74.1449 15.932 74.1289 15.892 74.1129 15.844C74.0969 15.764 74.0769 15.628 74.0529 15.436C74.0289 15.236 74.0089 15.052 73.9929 14.884L73.9089 14.392V11.992C73.9089 11.656 73.8409 11.42 73.7049 11.284C73.5689 11.14 73.3329 11.068 72.9969 11.068C72.3889 11.068 72.0929 11.288 72.1089 11.728C72.1089 11.824 72.0649 11.872 71.9769 11.872H70.8969C70.8009 11.872 70.7489 11.8 70.7409 11.656C70.6929 11.12 70.8729 10.704 71.2809 10.408C71.6969 10.104 72.2889 9.952 73.0569 9.952C73.8409 9.952 74.4129 10.12 74.7729 10.456C75.1409 10.792 75.3249 11.312 75.3249 12.016V14.512C75.3249 14.768 75.3289 15.008 75.3369 15.232C75.3529 15.456 75.3729 15.66 75.3969 15.844C75.4129 15.948 75.3689 16 75.2649 16H74.2689ZM71.9769 16.144C71.4969 16.144 71.1289 16 70.8729 15.712C70.6169 15.424 70.4889 15.012 70.4889 14.476C70.4889 14.06 70.5689 13.724 70.7289 13.468C70.8889 13.204 71.1489 13 71.5089 12.856C71.8769 12.704 72.3649 12.604 72.9729 12.556L74.0889 12.46V13.324L73.0929 13.408C72.6289 13.448 72.3089 13.536 72.1329 13.672C71.9569 13.808 71.8689 14.028 71.8689 14.332C71.8689 14.564 71.9169 14.74 72.0129 14.86C72.1089 14.972 72.2569 15.028 72.4569 15.028C72.6969 15.028 72.9409 14.952 73.1889 14.8C73.4369 14.64 73.7489 14.36 74.1249 13.96L74.1729 14.92C73.9329 15.184 73.6969 15.408 73.4649 15.592C73.2329 15.776 72.9969 15.912 72.7569 16C72.5169 16.096 72.2569 16.144 71.9769 16.144ZM78.6478 18.364C77.6798 18.364 76.9798 18.24 76.5478 17.992C76.1158 17.744 75.8998 17.372 75.8998 16.876C75.8998 16.572 75.9718 16.3 76.1158 16.06C76.2678 15.82 76.5078 15.62 76.8358 15.46L77.9158 15.808C77.7158 15.88 77.5678 15.984 77.4718 16.12C77.3838 16.256 77.3398 16.412 77.3398 16.588C77.3398 16.836 77.4398 17.008 77.6398 17.104C77.8398 17.208 78.1998 17.264 78.7198 17.272C79.2798 17.272 79.6598 17.22 79.8598 17.116C80.0598 17.012 80.1598 16.828 80.1598 16.564C80.1598 16.38 80.1118 16.244 80.0158 16.156C79.9278 16.068 79.7838 16.02 79.5838 16.012L77.3878 15.88C77.0918 15.856 76.8398 15.752 76.6318 15.568C76.4318 15.384 76.3318 15.112 76.3318 14.752C76.3318 14.576 76.3558 14.416 76.4038 14.272C76.4598 14.128 76.5478 13.996 76.6678 13.876C76.7878 13.748 76.9438 13.616 77.1358 13.48L77.9998 13.876C77.8398 13.932 77.7238 14.008 77.6518 14.104C77.5878 14.192 77.5558 14.288 77.5558 14.392C77.5558 14.512 77.5918 14.596 77.6638 14.644C77.7438 14.692 77.8678 14.72 78.0358 14.728L79.9678 14.848C80.5198 14.888 80.9198 15.052 81.1678 15.34C81.4238 15.62 81.5518 16.028 81.5518 16.564C81.5518 17.196 81.3198 17.652 80.8558 17.932C80.3998 18.22 79.6638 18.364 78.6478 18.364ZM78.7678 14.092C77.9678 14.092 77.3758 13.924 76.9918 13.588C76.6158 13.244 76.4278 12.724 76.4278 12.028C76.4278 11.324 76.6198 10.804 77.0038 10.468C77.3878 10.124 77.9838 9.952 78.7918 9.952C79.5758 9.952 80.1558 10.124 80.5318 10.468C80.9078 10.812 81.0958 11.336 81.0958 12.04C81.0958 12.736 80.9078 13.252 80.5318 13.588C80.1558 13.924 79.5678 14.092 78.7678 14.092ZM78.7678 12.988C79.1278 12.988 79.3758 12.916 79.5118 12.772C79.6558 12.62 79.7278 12.372 79.7278 12.028C79.7278 11.676 79.6558 11.424 79.5118 11.272C79.3758 11.12 79.1278 11.044 78.7678 11.044C78.4078 11.044 78.1558 11.12 78.0118 11.272C77.8678 11.424 77.7958 11.676 77.7958 12.028C77.7958 12.372 77.8678 12.62 78.0118 12.772C78.1558 12.916 78.4078 12.988 78.7678 12.988ZM80.3518 10.612L79.3318 10.216C79.3558 9.888 79.3838 9.6 79.4158 9.352C79.4558 9.096 79.4918 8.876 79.5238 8.692C79.5478 8.596 79.5958 8.548 79.6678 8.548H80.6278C80.7398 8.548 80.7798 8.6 80.7478 8.704C80.6598 8.968 80.5838 9.248 80.5198 9.544C80.4638 9.832 80.4078 10.188 80.3518 10.612ZM84.523 16.144C83.659 16.144 83.011 15.956 82.579 15.58C82.147 15.196 81.931 14.628 81.931 13.876V12.388C81.931 11.588 82.143 10.984 82.567 10.576C82.999 10.16 83.647 9.952 84.511 9.952C85.359 9.952 85.999 10.152 86.431 10.552C86.863 10.952 87.079 11.536 87.079 12.304V13.24C87.079 13.336 87.031 13.384 86.935 13.384H83.335V13.744C83.335 14.184 83.427 14.508 83.611 14.716C83.803 14.916 84.111 15.016 84.535 15.016C84.863 15.016 85.115 14.964 85.291 14.86C85.475 14.756 85.567 14.6 85.567 14.392C85.567 14.296 85.615 14.248 85.711 14.248H86.815C86.903 14.248 86.951 14.292 86.959 14.38C86.983 14.956 86.783 15.396 86.359 15.7C85.943 15.996 85.331 16.144 84.523 16.144ZM83.335 12.424H85.687V12.364C85.687 11.924 85.591 11.6 85.399 11.392C85.207 11.184 84.915 11.08 84.523 11.08C84.115 11.08 83.815 11.188 83.623 11.404C83.431 11.612 83.335 11.936 83.335 12.376V12.424Z" fill="#FF3C5C"/>
<path d="M15.0003 3.99968C13.8959 3.99968 13.0007 4.89487 13.0007 5.99932V9.24983L8.00047 9V5.49945C8.00062 4.11953 6.8811 3 5.49999 3C4.11881 3 3.00042 4.1196 3.00042 5.49953V18.5005C3.00042 19.8816 4.11881 21 5.49999 21C6.88118 21 8.00069 19.8816 8.00069 18.5005V14.5001H13.0008V18.5005C13.0008 19.6049 13.896 20.5001 15.0004 20.5001C16.1048 20.5001 17 19.6049 17 18.5006V5.99932C17 4.89495 16.1047 3.99968 15.0003 3.99968ZM2.50002 5.49975C2.50002 5.09632 2.5814 4.7115 2.72675 4.3593C1.9955 4.7952 1.50021 5.58578 1.50021 6.49958V18.0008C1.50021 19.0751 2.1815 19.983 3.13362 20.3363C2.73837 19.8284 2.50002 19.1925 2.50002 18.5008V5.49975ZM1.22654 5.3592C0.495295 5.79518 0 6.58688 0 7.49948V16.9999C0 17.9137 0.495295 18.7042 1.22654 19.1402C1.07667 18.7787 0.999624 18.3911 0.999815 17.9998V6.49965C0.999815 6.09623 1.08119 5.7114 1.22654 5.3592ZM12.5003 5.9997C12.5003 5.4765 12.663 4.9917 12.9386 4.58947C12.1097 4.83367 11.5005 5.59163 11.5005 6.49958V8.67472L12.5003 8.72483V5.9997ZM12.5003 15H11.5005V18.0006C11.5005 18.9085 12.1097 19.6665 12.9386 19.9106C12.663 19.5084 12.5003 19.0236 12.5003 18.5005V15ZM10.0002 17.5001C10.0002 18.4081 10.6094 19.166 11.4395 19.4101C11.1627 19.0079 11 18.5231 11 18V14.9994H10.0002V17.5001ZM11.0002 6.4998C11.0002 5.9766 11.163 5.4918 11.4385 5.08957C10.6096 5.33377 10.0005 6.09173 10.0005 6.99968V8.59942L11.0002 8.64945V6.4998Z" fill="#FF3C5C"/>
</svg>
