<svg width="17" height="18" viewBox="0 0 17 18" fill="none" xmlns="http://www.w3.org/2000/svg">
<path d="M15.0003 0.999675C13.8959 0.999675 13.0007 1.89487 13.0007 2.99932V6.24983L8.00047 6V2.49945C8.00062 1.11953 6.8811 0 5.49999 0C4.11881 0 3.00042 1.1196 3.00042 2.49953V15.5005C3.00042 16.8816 4.11881 18 5.49999 18C6.88118 18 8.00069 16.8816 8.00069 15.5005V11.5001H13.0008V15.5005C13.0008 16.6049 13.896 17.5001 15.0004 17.5001C16.1048 17.5001 17 16.6049 17 15.5006V2.99932C17 1.89495 16.1047 0.999675 15.0003 0.999675ZM2.50002 2.49975C2.50002 2.09632 2.5814 1.7115 2.72675 1.3593C1.9955 1.7952 1.50021 2.58578 1.50021 3.49958V15.0008C1.50021 16.0751 2.1815 16.983 3.13362 17.3363C2.73837 16.8284 2.50002 16.1925 2.50002 15.5008V2.49975ZM1.22654 2.3592C0.495295 2.79518 0 3.58688 0 4.49948V13.9999C0 14.9137 0.495295 15.7042 1.22654 16.1402C1.07667 15.7787 0.999624 15.3911 0.999815 14.9998V3.49965C0.999815 3.09623 1.08119 2.7114 1.22654 2.3592ZM12.5003 2.9997C12.5003 2.4765 12.663 1.9917 12.9386 1.58947C12.1097 1.83367 11.5005 2.59163 11.5005 3.49958V5.67472L12.5003 5.72483V2.9997ZM12.5003 12H11.5005V15.0006C11.5005 15.9085 12.1097 16.6665 12.9386 16.9106C12.663 16.5084 12.5003 16.0236 12.5003 15.5005V12ZM10.0002 14.5001C10.0002 15.4081 10.6094 16.166 11.4395 16.4101C11.1627 16.0079 11 15.5231 11 15V11.9994H10.0002V14.5001ZM11.0002 3.4998C11.0002 2.9766 11.163 2.4918 11.4385 2.08957C10.6096 2.33377 10.0005 3.09173 10.0005 3.99968V5.59942L11.0002 5.64945V3.4998Z" fill="#FF3C5C"/>
</svg>
